<?xml version="1.0" standalone="no"?>
<!DOCTYPE svg PUBLIC "-//W3C//DTD SVG 20010904//EN"
 "http://www.w3.org/TR/2001/REC-SVG-20010904/DTD/svg10.dtd">
<svg version="1.0" xmlns="http://www.w3.org/2000/svg"
 width="275.000000pt" height="183.000000pt" viewBox="0 0 275.000000 183.000000"
 preserveAspectRatio="xMidYMid meet">

<g transform="translate(0.000000,183.000000) scale(0.100000,-0.100000)"
fill="#000000" stroke="none">
<path d="M419 1121 c-23 -19 -24 -23 -24 -183 0 -182 6 -202 70 -232 29 -14
105 -23 105 -12 0 2 -7 20 -15 39 -11 27 -15 77 -15 202 0 152 -2 167 -20 185
-25 25 -71 26 -101 1z"/>
<path d="M831 1125 c-48 -15 -85 -45 -109 -90 -13 -24 -17 -59 -17 -168 0
-134 1 -139 24 -158 28 -22 69 -25 97 -5 17 13 20 31 24 146 6 129 6 133 33
156 34 29 66 30 100 4 24 -19 25 -25 28 -151 4 -123 5 -132 28 -150 30 -24 72
-24 102 0 23 18 24 25 24 148 0 149 -5 171 -46 218 -52 59 -184 82 -288 50z"/>
<path d="M1325 1115 c-24 -23 -25 -29 -25 -152 0 -144 15 -194 66 -230 61 -44
178 -56 270 -28 43 13 55 13 98 0 95 -29 228 -13 279 33 44 38 57 89 57 228 0
124 -1 132 -23 152 -31 29 -72 28 -102 -3 -24 -23 -25 -30 -25 -145 0 -115 -1
-122 -25 -145 -32 -33 -78 -33 -110 0 -24 23 -25 30 -25 149 0 123 0 125 -26
145 -35 28 -69 26 -99 -4 -24 -23 -25 -30 -25 -145 0 -115 -1 -122 -25 -145
-32 -33 -78 -33 -110 0 -24 23 -25 30 -25 145 0 115 -1 122 -25 145 -13 14
-36 25 -50 25 -14 0 -37 -11 -50 -25z"/>
<path d="M2215 1110 c12 -23 15 -66 15 -198 0 -156 2 -171 21 -196 26 -33 79
-36 109 -6 18 18 20 33 20 178 0 140 -2 161 -20 190 -23 38 -72 62 -125 62
l-36 0 16 -30z"/>
</g>
</svg>
