<?xml version="1.0" standalone="no"?>
<!DOCTYPE svg PUBLIC "-//W3C//DTD SVG 20010904//EN"
 "http://www.w3.org/TR/2001/REC-SVG-20010904/DTD/svg10.dtd">
<svg version="1.0" xmlns="http://www.w3.org/2000/svg"
 width="259.000000pt" height="194.000000pt" viewBox="0 0 259.000000 194.000000"
 preserveAspectRatio="xMidYMid meet">

<g transform="translate(0.000000,194.000000) scale(0.100000,-0.100000)"
fill="#000000" stroke="none">
<path d="M1667 1402 c-32 -35 -21 -69 41 -130 31 -31 76 -67 99 -79 l42 -22
-36 49 c-20 26 -41 47 -47 45 -11 -4 -83 131 -78 146 3 14 -3 11 -21 -9z"/>
<path d="M2230 1320 c0 -3 7 -30 15 -60 8 -30 15 -71 16 -90 2 -32 2 -32 6 -7
4 28 5 28 25 10 20 -18 21 -18 13 7 -12 38 -75 156 -75 140z"/>
<path d="M750 1185 c0 -8 9 -15 20 -15 11 0 20 7 20 15 0 8 -9 15 -20 15 -11
0 -20 -7 -20 -15z"/>
<path d="M830 1185 c0 -8 7 -15 15 -15 8 0 15 7 15 15 0 8 -7 15 -15 15 -8 0
-15 -7 -15 -15z"/>
<path d="M1430 1185 c0 -8 7 -15 15 -15 8 0 15 7 15 15 0 8 -7 15 -15 15 -8 0
-15 -7 -15 -15z"/>
<path d="M1637 1193 c-4 -3 -7 -69 -7 -145 0 -116 2 -138 15 -138 13 0 15 23
15 145 0 133 -4 157 -23 138z"/>
<path d="M304 1145 c-3 -13 -4 -63 -3 -111 6 -132 -20 -124 395 -124 410 0
384 -8 384 120 0 45 -4 80 -10 80 -18 0 -30 -38 -30 -93 0 -64 -4 -67 -89 -67
l-58 0 5 49 c4 43 1 53 -21 75 -28 28 -81 35 -116 16 -27 -14 -44 -64 -37
-105 l7 -35 -78 0 -78 0 3 80 c2 44 0 80 -5 80 -22 0 -33 -28 -33 -80 0 -31
-5 -61 -12 -68 -7 -7 -41 -12 -84 -12 -99 0 -104 6 -104 126 0 76 -3 94 -15
94 -8 0 -17 -11 -21 -25z m540 -91 c19 -18 21 -75 4 -92 -30 -30 -88 1 -88 46
0 51 51 79 84 46z"/>
<path d="M1383 1074 c-22 -22 -25 -32 -21 -75 l5 -49 -73 0 -74 0 0 30 c0 19
-5 30 -14 30 -19 0 -26 -23 -26 -89 0 -52 -3 -60 -31 -85 -36 -32 -33 -41 10
-31 36 8 61 39 61 76 l0 27 136 4 c135 3 136 3 160 31 27 32 31 75 9 116 -25
50 -99 58 -142 15z m99 -21 c35 -31 16 -103 -27 -103 -32 0 -55 25 -55 60 0
52 45 76 82 43z"/>
<path d="M2311 1064 c0 -11 3 -14 6 -6 3 7 2 16 -1 19 -3 4 -6 -2 -5 -13z"/>
<path d="M2207 988 c-35 -61 -101 -124 -164 -160 -53 -30 -54 -31 -36 -52 32
-37 47 -45 85 -46 73 0 193 129 205 222 3 24 2 40 -2 36 -5 -5 -13 2 -19 14
-19 38 -41 33 -69 -14z"/>
<path d="M470 855 c0 -8 7 -15 15 -15 8 0 15 7 15 15 0 8 -7 15 -15 15 -8 0
-15 -7 -15 -15z"/>
<path d="M540 855 c0 -8 9 -15 20 -15 11 0 20 7 20 15 0 8 -9 15 -20 15 -11 0
-20 -7 -20 -15z"/>
<path d="M930 855 c0 -8 7 -15 15 -15 8 0 15 7 15 15 0 8 -7 15 -15 15 -8 0
-15 -7 -15 -15z"/>
<path d="M1000 855 c0 -8 9 -15 20 -15 11 0 20 7 20 15 0 8 -9 15 -20 15 -11
0 -20 -7 -20 -15z"/>
<path d="M990 777 c-13 -7 -35 -28 -48 -47 -34 -50 -26 -104 22 -147 35 -32
38 -33 127 -33 68 0 90 3 87 13 -3 6 -14 13 -26 15 -26 4 -26 2 -7 38 21 41
19 76 -8 115 -37 55 -93 73 -147 46z m107 -49 c30 -28 31 -83 1 -115 -31 -33
-90 -32 -117 3 -63 80 42 181 116 112z"/>
<path d="M330 717 c-16 -36 -38 -88 -49 -116 l-19 -51 22 0 c19 0 26 11 46 68
13 37 28 76 33 87 9 18 11 17 22 -15 11 -31 10 -36 -8 -45 -35 -17 -32 -35 6
-35 29 0 37 -5 47 -30 8 -18 20 -30 31 -30 11 0 19 1 19 3 0 2 -20 52 -44 112
-28 69 -50 111 -60 113 -12 3 -25 -15 -46 -61z"/>
<path d="M507 773 c-4 -3 -7 -55 -7 -115 0 -101 1 -108 20 -108 17 0 20 7 20
50 l0 50 34 0 c33 0 62 20 49 33 -3 4 -24 7 -45 7 -35 0 -38 2 -38 29 0 28 2
30 47 33 26 2 48 9 51 16 3 9 -14 12 -60 12 -36 0 -68 -3 -71 -7z"/>
<path d="M660 665 c0 -108 1 -115 20 -115 19 0 20 7 20 100 0 94 1 100 21 100
31 0 59 -18 59 -38 0 -23 -19 -42 -41 -42 -30 0 -28 -27 4 -74 22 -32 39 -46
55 -46 25 0 22 11 -16 58 -18 24 -18 24 11 53 24 25 28 35 23 62 -9 44 -30 57
-98 57 l-58 0 0 -115z"/>
<path d="M857 773 c-4 -3 -7 -55 -7 -115 0 -101 1 -108 20 -108 19 0 20 7 20
115 0 89 -3 115 -13 115 -8 0 -17 -3 -20 -7z"/>
<path d="M1190 705 c0 -113 28 -155 104 -155 22 0 45 9 63 24 26 23 28 30 32
116 3 85 2 92 -15 88 -16 -3 -19 -14 -22 -78 -3 -83 -18 -110 -62 -110 -46 0
-60 27 -60 113 0 70 -2 77 -20 77 -18 0 -20 -7 -20 -75z"/>
<path d="M1437 773 c-4 -3 -7 -55 -7 -115 0 -101 1 -108 20 -108 19 0 20 7 20
115 0 89 -3 115 -13 115 -8 0 -17 -3 -20 -7z"/>
<path d="M1572 763 c-15 -27 -82 -196 -82 -205 0 -4 8 -8 19 -8 14 0 25 18 46
78 15 42 31 81 35 85 4 5 13 -6 19 -24 6 -18 10 -33 9 -33 -50 -17 -58 -46
-13 -46 31 0 37 -4 46 -30 7 -19 18 -30 30 -30 10 0 19 3 19 8 0 4 -20 54 -44
112 -43 105 -65 129 -84 93z"/>
<path d="M1490 485 c0 -12 18 -15 105 -15 87 0 105 3 105 15 0 12 -18 15 -105
15 -87 0 -105 -3 -105 -15z"/>
</g>
</svg>
