<?xml version="1.0" standalone="no"?>
<!DOCTYPE svg PUBLIC "-//W3C//DTD SVG 20010904//EN"
 "http://www.w3.org/TR/2001/REC-SVG-20010904/DTD/svg10.dtd">
<svg version="1.0" xmlns="http://www.w3.org/2000/svg"
 width="279.000000pt" height="181.000000pt" viewBox="0 0 279.000000 181.000000"
 preserveAspectRatio="xMidYMid meet">

<g transform="translate(0.000000,181.000000) scale(0.100000,-0.100000)"
fill="#000000" stroke="none">
<path d="M685 1099 c-11 -17 1 -21 15 -4 8 9 8 15 2 15 -6 0 -14 -5 -17 -11z"/>
<path d="M1012 1101 c2 -7 7 -12 11 -12 12 1 9 15 -3 20 -7 2 -11 -2 -8 -8z"/>
<path d="M1060 1088 c0 -9 5 -20 10 -23 13 -8 13 5 0 25 -8 13 -10 13 -10 -2z"/>
<path d="M641 1083 c-1 -6 -4 -20 -7 -30 -5 -17 -5 -17 6 0 6 10 9 23 6 30 -3
9 -5 9 -5 0z"/>
<path d="M660 1045 c-16 -19 0 -19 26 0 16 12 16 14 3 15 -9 0 -22 -7 -29 -15z"/>
<path d="M1020 1055 c0 -2 10 -10 23 -16 20 -11 21 -11 8 4 -13 16 -31 23 -31
12z"/>
<path d="M831 1018 c-9 -26 -8 -35 4 -47 13 -14 15 -10 15 32 0 26 -2 47 -4
47 -2 0 -9 -14 -15 -32z"/>
<path d="M870 1005 c0 -44 2 -48 15 -34 14 14 14 19 1 50 l-15 34 -1 -50z"/>
<path d="M602 1010 c0 -19 3 -44 7 -54 7 -17 9 -16 30 12 12 18 18 32 13 32
-6 0 -12 -7 -16 -15 -10 -27 -25 -16 -29 23 l-4 37 -1 -35z"/>
<path d="M1343 1032 c-6 -4 24 -7 67 -7 43 0 73 3 67 7 -7 4 -37 8 -67 8 -30
0 -60 -4 -67 -8z"/>
<path d="M1723 1015 c-28 -13 -56 -34 -63 -47 l-11 -23 18 23 c27 33 113 62
183 62 45 0 60 -4 60 -14 0 -8 -6 -17 -12 -19 -10 -4 -10 -6 -1 -6 7 -1 17 8
22 18 14 25 -3 31 -82 30 -43 0 -78 -7 -114 -24z"/>
<path d="M2023 1032 c-6 -4 31 -7 82 -7 51 0 88 3 82 7 -7 4 -43 8 -82 8 -38
0 -75 -4 -82 -8z"/>
<path d="M1111 1003 c-1 -38 -6 -40 -35 -15 -20 17 -20 17 -5 -7 9 -14 21 -27
27 -29 13 -4 26 38 19 65 -3 10 -5 4 -6 -14z"/>
<path d="M1264 984 c-30 -31 -34 -42 -34 -88 0 -38 5 -58 17 -67 15 -13 15
-12 5 8 -17 31 -15 100 4 129 9 14 29 31 43 39 14 8 20 14 12 15 -7 0 -29 -16
-47 -36z"/>
<path d="M1992 893 l-2 -133 40 0 39 0 3 117 3 118 30 6 c28 6 28 7 5 8 -44 2
-50 -15 -50 -131 l0 -108 -30 0 -29 0 -4 128 -3 127 -2 -132z"/>
<path d="M2236 1001 c33 -20 49 -58 39 -94 -5 -20 -5 -20 5 -4 23 36 -21 117
-64 117 -6 0 3 -9 20 -19z"/>
<path d="M1365 1000 c-12 -4 -27 -16 -35 -26 -14 -18 -14 -18 6 -1 35 29 88
33 129 9 19 -12 35 -19 35 -17 0 3 -15 14 -32 25 -35 21 -69 24 -103 10z"/>
<path d="M1536 993 c52 -44 60 -122 19 -172 -14 -16 -35 -33 -46 -36 -11 -4
-18 -9 -15 -12 9 -9 63 29 80 57 23 40 20 101 -6 140 -13 19 -30 35 -38 37 -9
3 -7 -3 6 -14z"/>
<path d="M1760 978 c-19 -13 -36 -30 -38 -38 -3 -8 5 -4 16 9 12 12 38 29 59
37 25 8 31 13 17 14 -12 0 -36 -10 -54 -22z"/>
<path d="M2178 972 c15 -15 29 -26 31 -25 6 4 -41 53 -50 53 -4 0 4 -13 19
-28z"/>
<path d="M915 962 c-7 -19 -6 -22 6 -22 5 0 7 5 3 11 -4 8 0 9 15 4 11 -3 28
-2 37 3 14 8 10 10 -19 14 -25 3 -38 0 -42 -10z"/>
<path d="M742 960 c10 -6 25 -7 40 -1 20 9 18 10 -17 10 -31 0 -36 -2 -23 -9z"/>
<path d="M1306 935 c-3 -9 -5 -29 -5 -43 1 -20 3 -17 9 13 8 43 7 57 -4 30z"/>
<path d="M1504 902 c1 -40 -4 -56 -23 -76 -14 -14 -32 -26 -40 -27 -12 0 -12
-2 -3 -6 20 -8 71 46 77 81 4 17 2 42 -3 55 -7 19 -8 14 -8 -27z"/>
<path d="M730 936 c0 -1 11 -12 23 -23 21 -18 26 -19 43 -5 18 14 18 14 -3 9
-13 -3 -23 -2 -23 3 0 4 -9 10 -20 13 -11 3 -20 4 -20 3z"/>
<path d="M962 933 c-12 -2 -19 -9 -16 -15 4 -6 -2 -8 -17 -4 -23 7 -23 6 -5
-8 15 -12 22 -13 30 -3 6 6 18 18 26 25 7 6 12 11 10 11 -3 -1 -15 -4 -28 -6z"/>
<path d="M1641 924 c0 -11 3 -14 6 -6 3 7 2 16 -1 19 -3 4 -6 -2 -5 -13z"/>
<path d="M587 905 c7 -36 29 -81 43 -90 6 -4 10 9 10 34 0 21 3 48 7 58 3 10
3 15 -2 11 -4 -4 -11 -25 -15 -45 -6 -31 -8 -34 -14 -18 -4 11 -14 34 -22 50
l-14 30 7 -30z"/>
<path d="M1120 904 c-12 -32 -13 -47 -1 -40 8 6 21 66 14 66 -2 0 -8 -12 -13
-26z"/>
<path d="M1070 910 c0 -32 13 -90 20 -90 4 0 11 7 14 16 3 8 2 12 -4 9 -6 -4
-10 6 -10 22 0 15 -5 35 -10 43 -9 13 -10 13 -10 0z"/>
<path d="M1712 895 c0 -16 2 -22 5 -12 2 9 2 23 0 30 -3 6 -5 -1 -5 -18z"/>
<path d="M2186 882 l-19 -27 24 22 c12 12 21 24 18 27 -2 2 -13 -8 -23 -22z"/>
<path d="M1641 882 c-2 -43 57 -112 96 -112 4 0 -5 8 -22 18 -40 25 -56 46
-65 85 -6 25 -8 27 -9 9z"/>
<path d="M773 837 c-2 -30 -1 -31 12 -13 8 10 12 23 8 29 -3 6 -1 7 5 3 6 -3
13 -2 17 4 3 6 -4 10 -17 10 -19 0 -23 -6 -25 -33z"/>
<path d="M905 860 c4 -6 11 -7 17 -4 7 5 9 1 5 -9 -3 -8 0 -20 7 -26 10 -9 13
-5 12 19 -1 24 -5 30 -24 30 -13 0 -20 -4 -17 -10z"/>
<path d="M805 817 l-30 -42 33 23 c17 13 32 32 32 43 0 10 -1 19 -2 19 -2 0
-16 -19 -33 -43z"/>
<path d="M883 840 c1 -12 15 -31 32 -43 16 -12 25 -15 19 -7 -51 70 -53 72
-51 50z"/>
<path d="M1310 853 c0 -17 58 -65 72 -60 9 4 8 6 -4 6 -9 1 -28 15 -42 32 -14
17 -26 27 -26 22z"/>
<path d="M1726 847 c3 -10 9 -15 12 -12 3 3 0 11 -7 18 -10 9 -11 8 -5 -6z"/>
<path d="M2106 844 c-5 -13 -3 -14 6 -6 7 5 22 12 33 15 16 4 14 5 -6 6 -17 1
-29 -5 -33 -15z"/>
<path d="M2200 844 c-24 -9 -29 -13 -14 -13 11 -1 29 6 40 14 22 17 20 17 -26
-1z"/>
<path d="M1762 814 c10 -10 20 -16 22 -13 3 3 -5 11 -17 18 -21 13 -21 12 -5
-5z"/>
<path d="M1285 790 c17 -11 35 -20 40 -20 6 0 -5 9 -23 20 -42 26 -56 26 -17
0z"/>
<path d="M1865 793 c55 -4 73 -18 35 -26 -17 -4 -16 -4 2 -3 13 0 23 7 23 16
0 12 -13 15 -58 16 l-57 1 55 -4z"/>
<path d="M1040 780 c0 -15 -62 -81 -95 -102 -27 -18 -28 -19 -5 -13 30 9 80
34 80 40 0 2 -8 1 -17 -2 -12 -4 -6 7 15 30 29 34 40 57 27 57 -3 0 -5 -4 -5
-10z"/>
<path d="M1074 768 c-40 -46 -50 -64 -20 -38 25 23 52 60 43 60 -2 0 -12 -10
-23 -22z"/>
<path d="M654 743 c38 -41 92 -73 146 -87 16 -4 10 2 -15 16 -22 12 -46 21
-53 20 -7 -2 -11 1 -10 5 2 4 -10 26 -25 48 -15 22 -27 36 -27 31 0 -4 9 -21
21 -37 22 -31 10 -41 -13 -11 -7 9 -24 26 -38 37 -14 11 -7 1 14 -22z"/>
<path d="M1458 763 c7 -3 16 -2 19 1 4 3 -2 6 -13 5 -11 0 -14 -3 -6 -6z"/>
<path d="M1768 763 c7 -3 16 -2 19 1 4 3 -2 6 -13 5 -11 0 -14 -3 -6 -6z"/>
</g>
</svg>
